<?xml version="1.0" encoding="UTF-8"?>
<svg id="Layer_1" data-name="Layer 1" xmlns="http://www.w3.org/2000/svg" viewBox="0 0 512 405.33">
  <defs>
    <style>
      .cls-1 {
        fill: #fff;
        stroke-width: 0px;
      }
    </style>
  </defs>
  <path class="cls-1" d="m0,32C0,14.29,14.29,0,32,0h341.33c17.71,0,32,14.29,32,32s-14.29,32-32,32H32C14.29,64,0,49.71,0,32Zm373.33,309.33H32c-17.71,0-32,14.29-32,32s14.29,32,32,32h341.33c17.71,0,32-14.29,32-32s-14.29-32-32-32Zm106.67-170.67H138.67c-17.71,0-32,14.29-32,32s14.29,32,32,32h341.33c17.71,0,32-14.29,32-32s-14.29-32-32-32Z"/>
</svg>