<?xml version="1.0" encoding="UTF-8"?>
<svg id="Capa_1" data-name="Capa 1" xmlns="http://www.w3.org/2000/svg" viewBox="0 0 348.12 384">
  <defs>
    <style>
      .cls-1 {
        fill: #fff;
        stroke-width: 0px;
      }
    </style>
  </defs>
  <path class="cls-1" d="m161.25,0c6.5,0,13,0,19.5,0,4.93.71,9.89,1.2,14.77,2.16,59.36,11.69,99.44,46.04,117.86,103.63,12.04,37.64,21.82,76.01,32.05,114.21,9.63,35.97-7.22,73.27-40.13,90.79-14.46,7.7-29.98,9.9-46.07,9.21-3.45-.15-4.77.84-5.76,4.32-8.64,30.28-28.34,49.45-58.78,57.53-3.35.89-6.79,1.45-10.19,2.16h-16.5c-.58-.2-1.14-.5-1.74-.6-35.38-5.83-57.9-26.08-67.69-60.49-.66-2.34-1.58-2.84-3.77-2.91-9.47-.3-19.09.13-28.38-1.38C22.67,311.49-7.21,269.2,1.52,225.87c7.68-38.14,15.37-76.38,25.48-113.91C42.6,54.06,80.92,18.1,139.15,3.65c7.22-1.79,14.73-2.46,22.1-3.65Zm12.37,288c30.99,0,61.99.02,92.98,0,33.91-.03,56.36-29.63,47.29-62.33-9.67-34.86-19.79-69.6-28.93-104.6-15.15-58.03-69.64-95.61-128.99-88.05-46.73,5.95-86.57,39.88-98.09,86.58-8.24,33.43-15.11,67.2-22.67,100.79-1.98,8.79-4.18,17.55-2.65,26.65,4.1,24.43,23.6,40.92,48.46,40.95,30.87.04,61.74.01,92.6.01Zm-41.86,32.25c3.92,18.3,26.25,32.79,48.35,31.53,18.05-1.03,39-17.35,40.4-31.53h-88.75Z"/>
</svg>