<?xml version="1.0" encoding="UTF-8"?>
<svg id="Outline" xmlns="http://www.w3.org/2000/svg" viewBox="0 0 512 512">
  <defs>
    <style>
      .cls-1 {
        fill: #fff;
        stroke-width: 0px;
      }
    </style>
  </defs>
  <path class="cls-1" d="m192,298.67h128c11.78,0,21.33-9.55,21.33-21.33s-9.55-21.33-21.33-21.33h-128c-11.78,0-21.33,9.55-21.33,21.33s9.55,21.33,21.33,21.33Z"/>
  <path class="cls-1" d="m405.33,0H106.67C47.79.07.07,47.79,0,106.67v21.33c.01,18.2,7.77,35.53,21.33,47.66v229.67c.07,58.88,47.79,106.6,106.67,106.67h256c58.88-.07,106.6-47.79,106.67-106.67v-229.67c13.56-12.13,21.32-29.46,21.33-47.66v-21.33c-.07-58.88-47.79-106.6-106.67-106.67ZM42.67,106.67c0-35.35,28.65-64,64-64h298.67c35.35,0,64,28.65,64,64v21.33c0,11.78-9.55,21.33-21.33,21.33H64c-11.78,0-21.33-9.55-21.33-21.33v-21.33Zm405.33,298.67c0,35.35-28.65,64-64,64H128c-35.35,0-64-28.65-64-64v-213.33h384v213.33Z"/>
</svg>