<?xml version="1.0" encoding="UTF-8"?>
<svg id="Capa_1" data-name="Capa 1" xmlns="http://www.w3.org/2000/svg" viewBox="0 0 512 512">
  <defs>
    <style>
      .cls-1 {
        fill: #fff;
        stroke-width: 0px;
      }
    </style>
  </defs>
  <path class="cls-1" d="m301.25,256L502.62,54.64c12.5-12.5,12.5-32.77,0-45.27-12.5-12.5-32.77-12.5-45.27,0h0l-201.36,201.38L54.64,9.38C42.14-3.13,21.87-3.13,9.38,9.38s-12.5,32.77,0,45.27l201.38,201.36L9.38,457.36c-12.5,12.5-12.5,32.77,0,45.27s32.77,12.5,45.27,0l201.36-201.38,201.36,201.38c12.5,12.5,32.77,12.5,45.27,0,12.5-12.5,12.5-32.77,0-45.27l-201.38-201.36Z"/>
</svg>