<?xml version="1.0" encoding="UTF-8"?>
<svg id="Layer_1" data-name="Layer 1" xmlns="http://www.w3.org/2000/svg" viewBox="0 0 384.07 512">
  <defs>
    <style>
      .cls-1 {
        fill: #fff;
        stroke-width: 0px;
      }
    </style>
  </defs>
  <path class="cls-1" d="m298.65,512H85.42c-24.96-.01-48.68-10.92-64.94-29.87C4.45,463.6-2.69,439,.92,414.76c11.45-62.39,44.74-118.67,93.89-158.76C45.65,215.89,12.38,159.6.94,97.19c-3.6-24.22,3.53-48.8,19.54-67.33C36.74,10.92,60.45.01,85.42,0h213.23c24.96.02,48.68,10.93,64.94,29.87,16.01,18.52,23.16,43.09,19.58,67.31-11.56,62.42-44.9,118.71-94.1,158.83,49.17,40.15,82.48,96.46,93.99,158.89,3.58,24.22-3.57,48.8-19.58,67.33-16.25,18.88-39.92,29.75-64.83,29.78Zm0-469.33H85.42c-12.52,0-24.43,5.45-32.6,14.93-7.98,9.09-11.54,21.24-9.73,33.19,8.02,53.33,41.05,103.25,98.13,148.42,9.24,7.31,10.8,20.73,3.48,29.97-1.02,1.29-2.19,2.46-3.48,3.48-57.09,45.21-90.05,95.17-98.13,148.48-1.83,11.98,1.73,24.16,9.73,33.26,8.17,9.49,20.08,14.94,32.6,14.93h213.23c12.52.01,24.43-5.44,32.6-14.93,7.98-9.07,11.54-21.21,9.73-33.15-7.96-53.06-40.96-103.02-98.13-148.52-9.21-7.34-10.73-20.77-3.39-29.98,1-1.25,2.13-2.39,3.39-3.39,57.19-45.5,90.2-95.47,98.13-148.54,1.81-11.98-1.79-24.15-9.83-33.22-8.15-9.46-20.01-14.91-32.49-14.93Zm-28.14,384H113.43c-11.78,0-21.33-9.56-21.32-21.34,0-2.73.53-5.44,1.55-7.97,16.71-36.07,42.16-67.4,74.05-91.14l11.05-8.79c7.77-6.18,18.79-6.18,26.56,0l10.86,8.66c31.84,23.83,57.3,55.17,74.09,91.22,4.43,10.92-.83,23.36-11.75,27.79-2.54,1.03-5.26,1.56-8.01,1.57Zm-120.47-42.67h83.8c-12.17-15.87-26.23-30.19-41.86-42.67-15.7,12.43-29.79,26.76-41.94,42.67Z"/>
</svg>