<?xml version="1.0" encoding="UTF-8"?>
<svg id="Capa_1" data-name="Capa 1" xmlns="http://www.w3.org/2000/svg" viewBox="0 0 9.69 36.39">
  <defs>
    <style>
      .cls-1 {
        fill: #fff;
        stroke-width: 0px;
      }
    </style>
  </defs>
  <path class="cls-1" d="m5.41,0c.66.24,1.37.4,1.97.75,1.92,1.12,2.76,3.49,2.08,5.61-.68,2.13-2.73,3.52-4.96,3.37C2.12,9.56.11,7.56.01,5.24-.1,2.61,1.59.46,4.08.07,4.15.06,4.21.02,4.27,0c.38,0,.76,0,1.14,0Z"/>
  <path class="cls-1" d="m9.68,31.52c0,2.69-2.16,4.87-4.83,4.88C2.17,36.39,0,34.22,0,31.53c0-2.69,2.16-4.87,4.83-4.87,2.68,0,4.85,2.17,4.85,4.86Z"/>
  <path class="cls-1" d="m4.86,23.06C2.18,23.07,0,20.9,0,18.21c0-2.69,2.14-4.86,4.83-4.88,2.66-.02,4.85,2.17,4.86,4.85,0,2.69-2.14,4.86-4.83,4.88Z"/>
</svg>